# xmcd
#
# Track frame offsets:
#	150
#	12652
#	28070
#	40865
#	49927
#	59527
#	72472
#	86025
#	100557
#	110330
#	120367
#	133622
#	146537
#	157895
#	173895
#	184675
#	198800
#	210950
#
# Disc length: 2997 seconds
#
# Revision: 0
# Processed by: cddbd v1.4PL0 Copyright (c) Steve Scherf et al.
# Submitted via: audiograbber 1.81.02
#
DISCID=f30bb312
DTITLE=Various Artist - Country Swing Essentials
DYEAR=1999
DGENRE=Country Swing
TTITLE0=Bob Wills &His Texas Playboys - Stay All Night, Stay A Little Longer
TTITLE1=Asleep At The Wheel - Red Wing
TTITLE2=Merle Haggard and The Strangers - Bring It On Down To My House Honey
TTITLE3=Buck Owens - Love's Gonna Live Here
TTITLE4=Willie Nelson - San Antonio Rose
TTITLE5=Milton Brown and His Musical Brownies - Somebody's Been Using That Thing
TTITLE6=Bob Dunn with Cliff Bruner's Texas Wanderers - I'll Keep On Loving You
TTITLE7=Bill Boyd and His Cowboy Ramblers - Shame On You
TTITLE8=Red Steagall - Lone Star Beer and Bob Wills Music
TTITLE9=Hank Thompson - Take Me Back To Tulsa
TTITLE10=Lefty Frizzell - If You've Got The Money, I've Got The Time
TTITLE11=Big Sandy and His Fly-Rite Boys - Feelin' Kinda Lucky
TTITLE12=Tracy Byrd - Back In The Swing Of Things
TTITLE13=Pam Tillis - You Can't Have A Good Time Without Me
TTITLE14=Mark Chestnutt - My Old Flames Have New Names
TTITLE15=Randy Travis and Merle Haggard - All Night Long
TTITLE16=Asleep At The Wheel featuring George Strait and Ray Benson - Big Ball's 
TTITLE16=In Cowtown
TTITLE17=Vince Gill and Reba McEntire - Oklahoma Swing
EXTD=
EXTT0=
EXTT1=
EXTT2=
EXTT3=
EXTT4=
EXTT5=
EXTT6=
EXTT7=
EXTT8=
EXTT9=
EXTT10=
EXTT11=
EXTT12=
EXTT13=
EXTT14=
EXTT15=
EXTT16=
EXTT17=
PLAYORDER=
